<mxfile host="app.diagrams.net" modified="2024-07-17T09:14:13.272Z" agent="Mozilla/5.0 (Windows NT 10.0; Win64; x64) AppleWebKit/537.36 (KHTML, like Gecko) Chrome/125.0.0.0 Safari/537.36" etag="9FPBxQOcvBK0cdqA87Zk" version="24.6.5" type="github">
  <diagram name="非现场违法管理系统" id="kNxR6VaUUjMcpS6PDHXA">
    <mxGraphModel dx="1434" dy="705" grid="1" gridSize="10" guides="1" tooltips="1" connect="1" arrows="1" fold="1" page="1" pageScale="1" pageWidth="827" pageHeight="1169" math="0" shadow="0">
      <root>
        <mxCell id="0" />
        <mxCell id="1" parent="0" />
        <mxCell id="nmC_CQ2BZJyvWGXA_My--1" value="" style="rounded=0;whiteSpace=wrap;html=1;" vertex="1" parent="1">
          <mxGeometry x="150" y="197.5" width="110" height="40" as="geometry" />
        </mxCell>
        <mxCell id="nmC_CQ2BZJyvWGXA_My--2" value="" style="rounded=0;whiteSpace=wrap;html=1;" vertex="1" parent="1">
          <mxGeometry x="770" y="195" width="100" height="35" as="geometry" />
        </mxCell>
        <mxCell id="nmC_CQ2BZJyvWGXA_My--3" value="" style="rounded=0;whiteSpace=wrap;html=1;" vertex="1" parent="1">
          <mxGeometry x="485" y="195" width="105" height="35" as="geometry" />
        </mxCell>
        <mxCell id="nmC_CQ2BZJyvWGXA_My--4" value="公安网" style="text;html=1;align=center;verticalAlign=middle;whiteSpace=wrap;rounded=0;" vertex="1" parent="1">
          <mxGeometry x="630" y="80" width="60" height="30" as="geometry" />
        </mxCell>
        <mxCell id="nmC_CQ2BZJyvWGXA_My--6" value="" style="html=1;verticalLabelPosition=bottom;align=center;labelBackgroundColor=#ffffff;verticalAlign=top;strokeWidth=2;strokeColor=#0080F0;shadow=0;dashed=0;shape=mxgraph.ios7.icons.video_conversation;" vertex="1" parent="1">
          <mxGeometry x="33" y="210" width="30" height="15" as="geometry" />
        </mxCell>
        <mxCell id="nmC_CQ2BZJyvWGXA_My--7" value="" style="html=1;verticalLabelPosition=bottom;align=center;labelBackgroundColor=#ffffff;verticalAlign=top;strokeWidth=2;strokeColor=#0080F0;shadow=0;dashed=0;shape=mxgraph.ios7.icons.video_conversation;" vertex="1" parent="1">
          <mxGeometry x="35" y="280" width="30" height="15" as="geometry" />
        </mxCell>
        <mxCell id="nmC_CQ2BZJyvWGXA_My--8" value="电警" style="text;html=1;align=center;verticalAlign=middle;whiteSpace=wrap;rounded=0;" vertex="1" parent="1">
          <mxGeometry x="18" y="170" width="60" height="30" as="geometry" />
        </mxCell>
        <mxCell id="nmC_CQ2BZJyvWGXA_My--9" value="卡口" style="text;html=1;align=center;verticalAlign=middle;whiteSpace=wrap;rounded=0;" vertex="1" parent="1">
          <mxGeometry x="20" y="240" width="60" height="30" as="geometry" />
        </mxCell>
        <mxCell id="nmC_CQ2BZJyvWGXA_My--10" value="数据采集" style="text;html=1;align=center;verticalAlign=middle;whiteSpace=wrap;rounded=0;" vertex="1" parent="1">
          <mxGeometry x="155" y="150" width="60" height="30" as="geometry" />
        </mxCell>
        <mxCell id="nmC_CQ2BZJyvWGXA_My--11" value="kafka集群" style="text;html=1;align=center;verticalAlign=middle;whiteSpace=wrap;rounded=0;" vertex="1" parent="1">
          <mxGeometry x="330" y="150" width="60" height="30" as="geometry" />
        </mxCell>
        <mxCell id="nmC_CQ2BZJyvWGXA_My--12" value="" style="rounded=0;whiteSpace=wrap;html=1;" vertex="1" parent="1">
          <mxGeometry x="310" y="197.5" width="100" height="32.5" as="geometry" />
        </mxCell>
        <mxCell id="nmC_CQ2BZJyvWGXA_My--13" value="外场" style="text;html=1;align=center;verticalAlign=middle;whiteSpace=wrap;rounded=0;" vertex="1" parent="1">
          <mxGeometry x="20" y="80" width="60" height="30" as="geometry" />
        </mxCell>
        <mxCell id="nmC_CQ2BZJyvWGXA_My--14" value="视频专网" style="text;html=1;align=center;verticalAlign=middle;whiteSpace=wrap;rounded=0;" vertex="1" parent="1">
          <mxGeometry x="240" y="90" width="60" height="30" as="geometry" />
        </mxCell>
        <mxCell id="nmC_CQ2BZJyvWGXA_My--15" value="" style="endArrow=none;html=1;rounded=0;" edge="1" parent="1">
          <mxGeometry width="50" height="50" relative="1" as="geometry">
            <mxPoint x="450" y="370" as="sourcePoint" />
            <mxPoint x="450" y="110" as="targetPoint" />
          </mxGeometry>
        </mxCell>
        <mxCell id="nmC_CQ2BZJyvWGXA_My--16" value="边界" style="text;html=1;align=center;verticalAlign=middle;whiteSpace=wrap;rounded=0;" vertex="1" parent="1">
          <mxGeometry x="420" y="80" width="60" height="30" as="geometry" />
        </mxCell>
        <mxCell id="nmC_CQ2BZJyvWGXA_My--17" value="kafka集群" style="text;html=1;align=center;verticalAlign=middle;whiteSpace=wrap;rounded=0;" vertex="1" parent="1">
          <mxGeometry x="510" y="150" width="60" height="30" as="geometry" />
        </mxCell>
        <mxCell id="nmC_CQ2BZJyvWGXA_My--18" value="非现场违法管理" style="text;html=1;align=center;verticalAlign=middle;whiteSpace=wrap;rounded=0;" vertex="1" parent="1">
          <mxGeometry x="620" y="150" width="110" height="30" as="geometry" />
        </mxCell>
        <mxCell id="nmC_CQ2BZJyvWGXA_My--19" value="集成指挥平台" style="text;html=1;align=center;verticalAlign=middle;whiteSpace=wrap;rounded=0;" vertex="1" parent="1">
          <mxGeometry x="790" y="150" width="60" height="30" as="geometry" />
        </mxCell>
        <mxCell id="nmC_CQ2BZJyvWGXA_My--20" value="" style="rounded=0;whiteSpace=wrap;html=1;" vertex="1" parent="1">
          <mxGeometry x="620" y="195" width="105" height="35" as="geometry" />
        </mxCell>
        <mxCell id="nmC_CQ2BZJyvWGXA_My--21" value="" style="endArrow=classic;html=1;rounded=0;entryX=0;entryY=0.25;entryDx=0;entryDy=0;" edge="1" parent="1">
          <mxGeometry width="50" height="50" relative="1" as="geometry">
            <mxPoint x="63" y="217" as="sourcePoint" />
            <mxPoint x="148" y="214.5" as="targetPoint" />
          </mxGeometry>
        </mxCell>
        <mxCell id="nmC_CQ2BZJyvWGXA_My--22" value="违法数据" style="text;html=1;align=center;verticalAlign=middle;whiteSpace=wrap;rounded=0;" vertex="1" parent="1">
          <mxGeometry x="78" y="190" width="60" height="30" as="geometry" />
        </mxCell>
        <mxCell id="nmC_CQ2BZJyvWGXA_My--23" value="过车数据" style="text;html=1;align=center;verticalAlign=middle;whiteSpace=wrap;rounded=0;" vertex="1" parent="1">
          <mxGeometry x="80" y="225" width="60" height="30" as="geometry" />
        </mxCell>
        <mxCell id="nmC_CQ2BZJyvWGXA_My--24" value="" style="rounded=0;whiteSpace=wrap;html=1;" vertex="1" parent="1">
          <mxGeometry x="138" y="340" width="120" height="60" as="geometry" />
        </mxCell>
        <mxCell id="nmC_CQ2BZJyvWGXA_My--25" value="" style="endArrow=classic;html=1;rounded=0;entryX=0.5;entryY=0;entryDx=0;entryDy=0;" edge="1" parent="1" target="nmC_CQ2BZJyvWGXA_My--24">
          <mxGeometry width="50" height="50" relative="1" as="geometry">
            <mxPoint x="198" y="240" as="sourcePoint" />
            <mxPoint x="260" y="210" as="targetPoint" />
          </mxGeometry>
        </mxCell>
        <mxCell id="nmC_CQ2BZJyvWGXA_My--26" value="ES" style="text;html=1;align=center;verticalAlign=middle;whiteSpace=wrap;rounded=0;" vertex="1" parent="1">
          <mxGeometry x="190" y="400" width="60" height="30" as="geometry" />
        </mxCell>
      </root>
    </mxGraphModel>
  </diagram>
</mxfile>
